<svg xmlns="http://www.w3.org/2000/svg" viewBox="0 0 1258.32 292.18"><defs><style>.cls-1{fill:#4facfe;}</style></defs><title>logo-blue-top</title><g id="Calque_2" data-name="Calque 2"><g id="Calque_1-2" data-name="Calque 1"><polygon class="cls-1" points="189.75 38.33 224.84 0 259.92 38.33 224.84 76.66 189.75 38.33 189.75 38.33"/><polygon class="cls-1" points="449.67 20.24 224.84 32.39 0 20.24 224.84 8.1 449.67 20.24 449.67 20.24"/><polygon class="cls-1" points="1068.58 38.33 1033.49 0 998.4 38.33 1033.49 76.66 1068.58 38.33 1068.58 38.33"/><polygon class="cls-1" points="808.65 20.24 1033.49 32.39 1258.32 20.24 1033.49 8.1 808.65 20.24 808.65 20.24"/><polygon class="cls-1" points="1135.51 99.33 1110.68 99.33 1110.68 43.19 946.58 43.19 946.58 78.81 629.16 28.07 311.75 78.81 311.75 43.19 147.64 43.19 147.64 99.33 122.81 99.33 176.79 156.55 629.16 292.18 1081.53 156.55 1135.51 99.33 1135.51 99.33"/></g></g></svg>