<svg xmlns="http://www.w3.org/2000/svg" viewBox="0 0 1258.32 929.25"><defs><style>.cls-1{fill:#fff;}</style></defs><title>logo-white</title><g id="Calque_2" data-name="Calque 2"><g id="Calque_1-2" data-name="Calque 1"><path class="cls-1" d="M248.14,929.25H185.77V542.7q0-79.92,74.72-79.91h46.77q74.7,0,74.71,79.91V929.25H319.6V758.39H248.14ZM319.6,701.86V546.59q0-27.29-27.28-27.28h-16.9q-27.27,0-27.28,27.28V701.86Z"/><path class="cls-1" d="M437.18,929.25V462.79h108.5q87.69,0,87.7,89.65V861.68q0,67.58-74.71,67.57Zm62.37-56.53h46.77q24.69,0,24.69-20.78V553.09q0-33.76-27.94-33.78H499.55Z"/><path class="cls-1" d="M836.72,929.25H688.6V462.79H751V872.72h85.76Z"/><path class="cls-1" d="M872.45,462.79H994.59q71.46,0,71.46,79.91v115q0,61.06-37,77.31l43.53,194.25h-59.12L972.5,740.84H934.82V929.25H872.45Zm62.37,224.78h40.93q27.93,0,27.94-33.78V553.09q0-33.76-27.94-33.78H934.82Z"/><polygon class="cls-1" points="189.75 38.33 224.84 0 259.92 38.33 224.84 76.66 189.75 38.33 189.75 38.33"/><polygon class="cls-1" points="449.67 20.24 224.84 32.39 0 20.24 224.84 8.1 449.67 20.24 449.67 20.24"/><polygon class="cls-1" points="1068.58 38.33 1033.49 0 998.4 38.33 1033.49 76.66 1068.58 38.33 1068.58 38.33"/><polygon class="cls-1" points="808.65 20.24 1033.49 32.39 1258.32 20.24 1033.49 8.1 808.65 20.24 808.65 20.24"/><polygon class="cls-1" points="1135.51 99.33 1110.68 99.33 1110.68 43.19 946.58 43.19 946.58 78.81 629.16 28.07 311.75 78.81 311.75 43.19 147.64 43.19 147.64 99.33 122.81 99.33 176.79 156.55 629.16 292.18 1081.53 156.55 1135.51 99.33 1135.51 99.33"/></g></g></svg>